<svg version="1.0" xmlns="http://www.w3.org/2000/svg"
 width="105.000000pt" height="82.000000pt" viewBox="0 0 105.000000 82.000000"
 preserveAspectRatio="xMidYMid meet">
<g transform="translate(0.000000,82.000000) scale(0.006629,-0.006699)"
fill="#000000" stroke="none">
<path d="M7892 9238 c-7 -7 -12 -24 -12 -39 0 -24 -5 -28 -32 -31 -26 -2 -34
-8 -36 -26 -5 -30 14 -52 44 -52 38 0 28 -25 -25 -63 -34 -25 -77 -42 -150
-61 -151 -39 -211 -65 -253 -106 -33 -33 -38 -44 -38 -84 0 -57 33 -131 94
-213 25 -35 41 -63 36 -63 -20 0 -33 -46 -21 -69 12 -21 12 -21 419 -19 l407
3 3 33 c2 18 -1 39 -7 46 -8 9 1 27 31 67 57 76 98 165 98 216 0 79 -49 114
-252 178 -62 20 -124 43 -138 50 -14 8 -40 22 -57 32 -40 20 -45 53 -9 53 30
0 49 22 44 52 -2 18 -10 24 -35 26 -25 3 -33 8 -33 23 0 50 -47 78 -78 47z
m-14 -518 c1 -130 -1 -207 -8 -214 -14 -14 -99 78 -137 151 -35 64 -69 184
-59 208 3 9 21 22 41 31 35 14 131 33 150 29 6 -1 11 -80 13 -205z m186 195
c82 -21 114 -34 120 -51 8 -22 -21 -123 -59 -199 -36 -73 -125 -173 -144 -161
-7 5 -11 74 -11 211 0 197 2 208 29 214 2 1 31 -6 65 -14z m-479 -92 c22 -104
43 -163 85 -233 27 -43 46 -81 42 -84 -35 -36 -163 88 -219 212 -27 61 -22 81
30 112 43 27 56 25 62 -7z m772 -30 c13 -20 12 -28 -18 -89 -33 -66 -122 -174
-162 -195 -40 -22 -39 7 2 70 38 59 72 145 86 221 4 19 9 38 12 43 6 11 63
-24 80 -50z"/>
<path d="M6418 9005 c-6 -14 -9 -27 -7 -28 2 -2 31 -20 65 -40 l60 -36 32
-114 c18 -63 32 -116 32 -120 0 -3 -105 55 -232 130 -128 75 -240 138 -249
140 -18 5 -44 -30 -35 -45 3 -5 108 -69 235 -142 127 -74 227 -138 223 -141
-4 -3 -56 -18 -115 -33 l-108 -26 -70 41 c-67 40 -70 41 -84 23 -8 -11 -15
-24 -15 -30 0 -6 181 -117 403 -247 l403 -236 164 41 164 41 40 -23 c156 -87
543 -315 553 -324 9 -8 -63 -55 -297 -191 -170 -99 -310 -182 -310 -185 0 -3
8 -15 18 -28 l18 -24 327 192 327 191 327 -191 327 -191 18 23 c10 13 18 25
18 28 0 3 -140 86 -310 185 -234 136 -306 183 -297 191 7 7 142 87 302 180
l289 168 165 -41 165 -41 403 235 c222 129 403 240 403 247 0 6 -7 19 -15 29
-13 18 -17 17 -84 -22 l-70 -41 -108 26 c-59 15 -111 30 -115 33 -4 3 96 66
223 140 126 73 232 137 235 142 7 12 -14 49 -29 49 -7 0 -118 -63 -247 -139
-129 -76 -236 -137 -238 -136 -1 1 12 55 30 120 l32 117 64 36 c47 27 62 42
60 56 -8 50 -25 42 -427 -193 -217 -127 -398 -236 -402 -242 -3 -6 -26 -82
-50 -169 l-44 -158 -305 -178 c-168 -97 -309 -179 -313 -182 -9 -4 -593 332
-619 357 -9 9 -36 88 -61 176 l-45 160 -397 233 c-218 127 -401 232 -406 232
-5 0 -15 -11 -21 -25z m2854 -269 l-35 -124 -62 -36 c-34 -20 -64 -36 -67 -36
-6 0 58 230 66 238 3 2 33 21 68 42 35 21 63 39 64 39 1 1 -15 -55 -34 -123z
m-2529 44 c10 -9 77 -240 69 -240 -3 0 -33 16 -68 36 l-62 37 -27 101 c-15 56
-30 110 -33 120 -4 17 3 15 54 -14 32 -18 63 -36 67 -40z m172 -100 c22 -13
42 -25 44 -26 5 -4 71 -237 68 -240 -1 -2 -27 13 -57 31 -30 19 -58 36 -62 37
-5 2 -21 49 -37 104 -16 56 -32 112 -36 125 -7 22 -7 22 16 8 13 -8 42 -26 64
-39z m2139 -75 c-19 -66 -38 -121 -42 -123 -4 -1 -32 -18 -62 -37 -30 -18 -56
-33 -57 -32 -5 6 66 242 74 244 4 2 33 19 63 38 30 18 56 33 57 32 1 -2 -14
-56 -33 -122z m-1884 -75 c13 -10 30 -53 50 -123 16 -59 30 -111 30 -116 0 -5
-31 9 -70 31 -62 36 -71 45 -81 82 -6 22 -19 71 -30 107 -10 36 -19 72 -19 78
0 12 76 -26 120 -59z m1684 -12 c-14 -46 -29 -99 -34 -119 -9 -31 -21 -43 -80
-77 -39 -22 -70 -36 -70 -31 0 6 14 60 32 120 l31 110 66 39 c36 22 69 40 72
40 4 0 -4 -37 -17 -82z m-2158 7 c35 -20 65 -39 68 -43 3 -5 -46 -21 -108 -36
l-112 -27 -75 43 -74 43 110 26 c61 15 114 27 119 28 5 1 37 -15 72 -34z
m2714 7 l115 -27 -74 -43 -75 -43 -113 28 c-69 16 -109 31 -104 36 11 11 123
76 131 76 3 0 57 -12 120 -27z m-2483 -140 l62 -38 -115 -28 c-126 -31 -125
-31 -206 21 l-43 27 110 27 c61 15 115 27 120 28 6 0 38 -17 72 -37z m2258 10
l110 -28 -43 -28 c-81 -51 -80 -51 -206 -20 l-116 28 63 37 c34 21 67 38 72
38 6 0 60 -12 120 -27z m-2049 -132 c41 -24 62 -41 53 -44 -8 -3 -60 -17 -117
-31 l-103 -26 -66 40 -66 39 39 11 c21 5 73 19 114 30 41 10 76 20 76 20 1 1
32 -17 70 -39z m1908 -11 l39 -11 -66 -39 -66 -40 -103 26 c-57 14 -110 28
-118 31 -9 3 10 19 54 43 l68 38 77 -19 c42 -10 94 -24 115 -29z"/>
<path d="M7510 8330 c-23 -23 -24 -33 -10 -61 10 -18 25 -19 408 -19 296 0
401 3 410 12 19 19 15 66 -7 78 -13 6 -157 10 -400 10 -368 0 -382 -1 -401
-20z"/>
<path d="M3880 7650 l0 -50 1275 0 1275 0 0 50 0 50 -1275 0 -1275 0 0 -50z"/>
<path d="M9490 7650 l0 -50 1235 0 1235 0 0 50 0 50 -1235 0 -1235 0 0 -50z"/>
<path d="M3975 7199 c-193 -28 -335 -133 -386 -287 -18 -53 -21 -82 -17 -171
3 -96 6 -113 36 -173 59 -120 147 -180 423 -289 168 -66 218 -93 268 -141 44
-43 61 -85 61 -151 0 -77 -39 -135 -117 -173 -105 -52 -291 -43 -392 18 -55
34 -71 71 -71 166 l0 82 -125 0 -125 0 0 -113 c0 -156 15 -204 88 -277 102
-101 248 -151 447 -153 189 -1 327 45 434 148 99 94 136 195 129 353 -3 86 -8
107 -36 164 -38 78 -119 158 -208 205 -33 18 -123 57 -201 87 -282 110 -343
159 -343 281 0 53 10 77 53 122 82 87 325 89 416 4 29 -28 31 -33 31 -105 l0
-76 125 0 125 0 0 124 c0 69 -4 136 -10 150 -14 37 -77 104 -124 131 -59 34
-158 63 -256 75 -96 11 -140 11 -225 -1z"/>
<path d="M5545 6480 l-250 -700 -77 0 -78 0 0 -110 0 -110 295 0 295 0 0 110
0 110 -81 0 c-73 0 -80 2 -74 18 3 9 27 77 53 150 l46 132 265 -2 264 -3 52
-147 52 -148 -78 0 -79 0 0 -110 0 -110 295 0 295 0 0 110 0 110 -78 0 -78 0
-250 698 -250 697 -145 3 -144 2 -250 -700z m491 92 l91 -257 -185 -3 c-102
-1 -186 -1 -188 1 -6 5 180 526 186 520 3 -2 46 -120 96 -261z"/>
<path d="M6970 7070 l0 -110 78 0 77 0 218 -363 217 -362 0 -228 0 -227 -100
0 -100 0 0 -110 0 -110 330 0 330 0 0 110 0 110 -100 0 -100 0 0 226 0 226
218 363 217 364 83 1 82 0 0 110 0 110 -295 0 -295 0 0 -110 0 -110 71 0 c40
0 69 -4 67 -9 -12 -35 -274 -468 -280 -463 -3 4 -67 111 -142 237 l-135 230
69 3 70 3 0 109 0 110 -290 0 -290 0 0 -110z"/>
<path d="M8890 7070 l0 -110 100 0 100 0 0 -590 0 -590 -100 0 -100 0 0 -110
0 -110 330 0 330 0 0 110 0 110 -95 0 -95 0 0 256 0 257 74 -5 c43 -3 85 -12
98 -20 14 -9 97 -147 198 -328 118 -211 184 -320 205 -335 46 -35 98 -45 233
-45 l122 0 0 110 0 110 -68 0 c-44 0 -75 5 -89 15 -12 8 -90 135 -175 282 -84
147 -166 286 -183 308 l-31 40 191 267 190 267 83 0 82 1 0 110 0 110 -290 0
-290 0 0 -110 0 -109 60 -3 61 -3 -153 -222 -153 -222 -82 -1 -83 0 0 225 0
225 85 0 85 0 0 110 0 110 -320 0 -320 0 0 -110z"/>
<path d="M11113 6483 l-249 -698 -82 -3 -82 -3 0 -109 0 -110 295 0 295 0 0
110 0 110 -75 0 c-41 0 -75 3 -75 6 0 5 78 232 95 277 7 16 30 17 270 17 240
0 263 -1 270 -17 17 -45 95 -272 95 -277 0 -3 -34 -6 -75 -6 l-75 0 0 -110 0
-110 295 0 295 0 0 110 0 110 -79 0 c-66 0 -80 3 -86 18 -4 9 -114 316 -245
682 -131 366 -242 673 -245 683 -6 15 -23 17 -150 17 l-142 0 -250 -697z m496
72 c45 -126 81 -233 81 -237 0 -5 -84 -8 -186 -8 -152 0 -185 2 -182 14 2 7
44 128 93 269 86 244 90 254 101 224 7 -18 48 -135 93 -262z"/>
<path d="M3880 5100 l0 -50 4040 0 4040 0 0 50 0 50 -4040 0 -4040 0 0 -50z"/>
<path d="M4009 4637 c-95 -36 -139 -101 -139 -207 0 -85 28 -143 87 -180 76
-49 189 -51 255 -6 28 19 33 28 36 69 l3 47 -35 0 c-31 0 -36 -3 -36 -24 0
-34 -35 -56 -91 -56 -82 0 -149 67 -149 150 0 78 67 150 141 150 58 0 89 -18
89 -52 0 -25 3 -28 35 -28 35 0 35 0 35 43 0 45 -12 62 -57 86 -36 18 -134 23
-174 8z"/>
<path d="M9715 4631 c-44 -20 -65 -53 -65 -105 0 -49 33 -83 116 -121 77 -35
102 -62 85 -94 -12 -22 -32 -31 -72 -31 -47 0 -69 17 -69 50 0 28 -3 30 -35
30 -34 0 -35 -1 -35 -41 0 -55 39 -95 103 -104 64 -10 112 1 149 34 24 22 32
37 35 77 5 43 2 54 -22 82 -16 19 -49 40 -86 53 -69 25 -104 61 -88 90 22 41
111 35 117 -9 3 -18 10 -22 38 -22 32 0 34 2 34 34 0 45 -26 75 -75 86 -58 14
-85 12 -130 -9z"/>
<path d="M4370 4610 c0 -27 3 -30 30 -30 l30 0 0 -150 0 -150 -30 0 c-27 0
-30 -3 -30 -30 l0 -30 160 0 160 0 0 55 c0 54 0 55 -30 55 -25 0 -30 -4 -30
-25 0 -24 -2 -25 -65 -25 l-65 0 0 60 0 60 70 0 70 0 0 30 0 30 -70 0 -70 0 0
60 0 60 60 0 c57 0 60 -1 60 -25 0 -21 5 -25 30 -25 30 0 30 1 30 55 l0 55
-155 0 -155 0 0 -30z"/>
<path d="M4850 4610 c0 -25 4 -30 25 -30 l25 0 0 -150 0 -150 -25 0 c-21 0
-25 -5 -25 -30 l0 -30 85 0 85 0 0 30 c0 25 -4 30 -25 30 -23 0 -25 3 -25 51
l0 50 32 -3 c28 -3 38 -12 78 -78 44 -73 47 -75 88 -78 40 -3 42 -2 42 25 0
19 -7 32 -21 38 -11 6 -34 33 -50 62 -28 51 -29 53 -9 63 46 25 67 131 34 178
-30 43 -65 52 -194 52 l-120 0 0 -30z m234 -51 c55 -44 21 -109 -62 -117 l-52
-5 0 72 0 71 44 0 c29 0 52 -7 70 -21z"/>
<path d="M5330 4611 c0 -23 5 -30 21 -33 18 -2 32 -31 84 -178 l62 -175 39 -3
39 -3 64 181 c52 147 67 180 82 180 14 0 19 7 19 30 l0 30 -80 0 -80 0 0 -30
c0 -23 4 -30 20 -30 11 0 20 -3 20 -7 0 -3 -19 -60 -42 -126 l-42 -120 -41
124 c-39 114 -40 124 -23 127 13 2 18 12 18 33 l0 29 -80 0 -80 0 0 -29z"/>
<path d="M5880 4610 c0 -25 4 -30 25 -30 l25 0 0 -150 0 -150 -25 0 c-21 0
-25 -5 -25 -30 l0 -30 160 0 160 0 0 55 0 55 -35 0 c-31 0 -35 -3 -35 -25 0
-24 -2 -25 -65 -25 l-65 0 0 60 0 60 75 0 75 0 0 30 0 30 -75 0 -75 0 0 60 0
60 60 0 c57 0 60 -1 60 -25 0 -22 4 -25 35 -25 l35 0 0 55 0 55 -155 0 -155 0
0 -30z"/>
<path d="M6380 4575 l0 -65 30 0 c28 0 30 3 30 35 l0 35 75 0 76 0 -68 -97
c-37 -54 -85 -122 -105 -152 -22 -32 -38 -66 -38 -83 l0 -28 155 0 155 0 0 65
0 65 -30 0 c-28 0 -30 -3 -30 -35 l0 -35 -75 0 c-41 0 -75 3 -75 6 0 3 47 73
105 156 60 86 105 162 105 175 l0 23 -155 0 -155 0 0 -65z"/>
<path d="M6986 4631 c-3 -5 -29 -74 -57 -152 -28 -79 -55 -156 -61 -171 -6
-17 -17 -28 -29 -28 -14 0 -19 -7 -19 -30 l0 -30 75 0 75 0 0 30 c0 20 -5 30
-15 30 -18 0 -19 9 -5 44 9 24 14 26 75 26 65 0 66 -1 80 -32 12 -31 12 -33
-6 -36 -14 -3 -19 -12 -19 -33 l0 -29 80 0 80 0 0 30 c0 24 -4 30 -23 30 -20
0 -29 19 -86 180 l-65 180 -37 0 c-21 0 -40 -4 -43 -9z"/>
<path d="M7700 4460 c-51 -143 -68 -180 -82 -180 -13 0 -18 -8 -18 -30 l0 -30
75 0 75 0 0 29 c0 21 -5 30 -19 33 -18 3 -18 5 -6 36 14 31 15 32 80 32 61 0
66 -2 75 -26 14 -35 13 -44 -5 -44 -10 0 -15 -10 -15 -30 l0 -30 75 0 75 0 0
30 c0 23 -5 30 -19 30 -15 0 -30 32 -80 171 -33 94 -61 175 -61 180 0 5 -19 9
-43 9 l-43 0 -64 -180z"/>
<path d="M8150 4611 c0 -26 4 -31 25 -31 l25 0 0 -150 0 -150 -25 0 c-21 0
-25 -5 -25 -30 l0 -30 85 0 85 0 0 30 c0 25 -4 30 -25 30 -23 0 -25 3 -25 50
l0 50 34 0 c32 0 37 -5 78 -77 l43 -78 48 -3 c46 -3 47 -3 47 27 0 24 -4 31
-19 31 -12 0 -31 20 -54 58 l-34 59 29 24 c54 44 55 140 2 190 -24 23 -34 24
-160 27 l-134 4 0 -31z m246 -56 c20 -27 17 -69 -6 -90 -11 -10 -42 -20 -70
-23 l-50 -5 0 73 0 72 56 -4 c40 -3 61 -10 70 -23z"/>
<path d="M8620 4575 l0 -65 30 0 c28 0 30 3 30 35 0 34 1 35 40 35 l40 0 0
-150 0 -150 -25 0 c-21 0 -25 -5 -25 -30 l0 -30 90 0 90 0 0 30 c0 25 -4 30
-25 30 l-25 0 0 150 0 150 40 0 c39 0 40 -1 40 -35 0 -32 2 -35 30 -35 l30 0
0 65 0 65 -180 0 -180 0 0 -65z"/>
<path d="M9100 4610 c0 -25 4 -30 25 -30 l25 0 0 -150 0 -150 -25 0 c-21 0
-25 -5 -25 -30 l0 -30 160 0 160 0 0 55 0 55 -35 0 c-31 0 -35 -3 -35 -25 0
-24 -2 -25 -65 -25 l-65 0 0 60 0 60 75 0 75 0 0 30 0 30 -75 0 -75 0 0 60 0
60 60 0 c57 0 60 -1 60 -25 0 -22 4 -25 35 -25 l35 0 0 55 0 55 -155 0 -155 0
0 -30z"/>
<path d="M10171 4460 c-52 -146 -67 -180 -82 -180 -14 0 -19 -7 -19 -30 l0
-30 75 0 75 0 0 30 c0 20 -5 30 -15 30 -18 0 -19 9 -5 44 9 24 14 26 75 26 61
0 66 -2 75 -26 14 -35 13 -44 -5 -44 -10 0 -15 -10 -15 -30 l0 -30 75 0 75 0
0 30 c0 23 -5 30 -19 30 -15 0 -30 33 -82 180 l-64 180 -40 0 -40 0 -64 -180z"/>
<path d="M10590 4610 c0 -25 4 -30 25 -30 l25 0 0 -150 0 -150 -25 0 c-21 0
-25 -5 -25 -30 l0 -30 90 0 90 0 0 30 c0 25 -4 30 -25 30 l-25 0 0 112 0 112
97 -142 c96 -141 97 -142 135 -142 l38 0 0 180 0 180 25 0 c21 0 25 5 25 30
l0 30 -90 0 -90 0 0 -30 c0 -25 4 -30 25 -30 l25 0 0 -112 0 -112 -52 75 c-29
42 -73 106 -98 142 l-45 67 -62 0 -63 0 0 -30z"/>
<path d="M11279 4613 c-6 -16 -31 -84 -56 -153 -25 -69 -50 -137 -55 -152 -6
-17 -17 -28 -29 -28 -14 0 -19 -7 -19 -30 l0 -30 75 0 75 0 0 30 c0 20 -5 30
-15 30 -18 0 -19 9 -5 44 9 24 14 26 75 26 65 0 66 -1 80 -32 12 -31 12 -33
-6 -36 -14 -3 -19 -12 -19 -33 l0 -29 80 0 80 0 0 30 c0 25 -4 30 -23 30 -20
0 -29 18 -86 180 l-64 180 -39 0 c-33 0 -40 -4 -49 -27z"/>
<path d="M11660 4610 c0 -25 4 -30 25 -30 l25 0 0 -150 0 -150 -25 0 c-21 0
-25 -5 -25 -30 l0 -30 155 0 155 0 0 65 0 65 -30 0 c-28 0 -30 -3 -30 -35 l0
-35 -65 0 -65 0 0 150 0 150 25 0 c21 0 25 5 25 30 l0 30 -85 0 -85 0 0 -30z"/>
<path d="M3880 3750 l0 -50 4040 0 4040 0 0 50 0 50 -4040 0 -4040 0 0 -50z"/>
<path d="M5420 3265 c0 -16 6 -25 15 -25 12 0 15 -14 15 -70 0 -56 -3 -70 -15
-70 -9 0 -15 -9 -15 -25 0 -25 1 -25 90 -25 l90 0 0 40 c0 36 -2 40 -25 40
-16 0 -25 -6 -25 -15 0 -9 -9 -15 -25 -15 -24 0 -25 2 -25 70 0 56 3 70 15 70
9 0 15 9 15 25 0 24 -3 25 -55 25 -52 0 -55 -1 -55 -25z"/>
<path d="M5768 3261 c-87 -76 -36 -211 79 -211 38 0 50 5 79 34 30 30 34 40
34 85 0 72 -36 112 -106 118 -46 5 -54 2 -86 -26z m122 -41 c43 -43 11 -120
-49 -120 -34 0 -61 31 -61 70 0 63 67 93 110 50z"/>
<path d="M6120 3270 c-25 -25 -26 -72 -2 -92 9 -9 34 -23 55 -32 44 -18 45
-39 3 -44 -21 -3 -29 1 -33 17 -3 12 -14 21 -24 21 -15 0 -19 -7 -19 -35 0
-41 20 -55 79 -55 49 0 81 27 81 68 0 37 -8 47 -60 74 -24 12 -45 28 -45 33 0
17 45 18 51 1 3 -9 15 -16 25 -16 27 0 26 55 0 70 -33 17 -89 12 -111 -10z"/>
<path d="M6590 3265 c0 -16 6 -25 15 -25 12 0 15 -14 15 -70 0 -56 -3 -70 -15
-70 -9 0 -15 -9 -15 -25 0 -25 1 -25 90 -25 l90 0 0 40 c0 36 -2 40 -25 40
-16 0 -25 -6 -25 -15 0 -9 -9 -15 -25 -15 -24 0 -25 2 -25 70 0 40 4 70 10 70
6 0 10 11 10 25 0 23 -3 25 -50 25 -47 0 -50 -2 -50 -25z"/>
<path d="M6939 3196 c-19 -54 -39 -96 -46 -96 -7 0 -13 -11 -13 -25 0 -23 3
-25 50 -25 47 0 50 2 50 25 0 14 -5 25 -11 25 -5 0 -7 5 -4 10 3 6 19 10 35
10 27 0 28 -2 23 -35 l-6 -35 47 0 c42 0 46 2 46 24 0 13 -5 26 -11 28 -6 2
-26 44 -43 93 -28 79 -35 90 -58 93 -24 3 -27 -3 -59 -92z"/>
<path d="M7294 3280 c-67 -27 -87 -134 -36 -190 19 -22 39 -33 69 -37 82 -11
123 15 123 78 l0 39 -45 0 c-38 0 -45 -3 -45 -20 0 -14 7 -20 21 -20 35 0 15
-25 -23 -28 -27 -2 -41 3 -57 19 -45 49 -13 119 54 119 28 0 35 -4 35 -20 0
-15 7 -20 25 -20 21 0 25 5 25 29 0 20 -8 35 -22 45 -24 17 -90 20 -124 6z"/>
<path d="M7633 3271 c-43 -27 -61 -85 -44 -141 17 -56 60 -83 124 -77 68 6 99
38 105 110 4 49 1 57 -25 87 -38 43 -110 52 -160 21z m117 -53 c23 -25 25 -49
9 -81 -16 -29 -28 -37 -60 -37 -33 0 -62 32 -62 70 0 63 71 93 113 48z"/>
<path d="M7982 3274 c-32 -22 -30 -76 4 -103 15 -12 33 -21 40 -21 17 0 45
-30 39 -41 -12 -18 -57 -10 -62 11 -3 13 -14 20 -29 20 -19 0 -24 -5 -24 -25
0 -42 34 -67 87 -63 37 2 50 9 66 30 30 40 15 76 -46 108 -49 26 -56 43 -19
48 15 2 22 -2 22 -12 0 -10 9 -16 25 -16 21 0 25 5 25 30 0 19 -7 33 -19 40
-29 15 -83 12 -109 -6z"/>
<path d="M8908 3275 c-57 -32 -74 -113 -38 -173 22 -36 54 -52 105 -52 58 0
85 18 85 57 0 26 -4 33 -19 33 -10 0 -21 -9 -24 -21 -5 -17 -12 -20 -43 -17
-67 6 -95 76 -48 122 23 24 75 21 81 -4 3 -13 14 -20 29 -20 20 0 24 5 24 29
0 16 -7 34 -15 41 -24 20 -106 23 -137 5z"/>
<path d="M9200 3265 c0 -14 5 -25 10 -25 6 0 10 -30 10 -70 0 -40 -4 -70 -10
-70 -5 0 -10 -11 -10 -25 0 -23 3 -25 50 -25 47 0 50 2 50 25 0 16 -6 25 -15
25 -9 0 -15 9 -15 25 0 23 3 25 50 25 47 0 50 -2 50 -25 0 -16 -6 -25 -15 -25
-9 0 -15 -9 -15 -25 0 -23 3 -25 50 -25 47 0 50 2 50 25 0 14 -4 25 -10 25 -6
0 -10 30 -10 70 0 40 4 70 10 70 6 0 10 11 10 25 0 23 -3 25 -50 25 -47 0 -50
-2 -50 -25 0 -16 6 -25 15 -25 9 0 15 -9 15 -25 0 -23 -3 -25 -50 -25 -47 0
-50 2 -50 25 0 16 6 25 15 25 9 0 15 9 15 25 0 23 -3 25 -50 25 -47 0 -50 -2
-50 -25z"/>
<path d="M9580 3265 c0 -14 5 -25 10 -25 6 0 10 -30 10 -70 0 -40 -4 -70 -10
-70 -5 0 -10 -11 -10 -25 0 -23 3 -25 50 -25 47 0 50 2 50 25 0 16 -6 25 -15
25 -12 0 -15 14 -15 70 0 56 3 70 15 70 9 0 15 9 15 25 0 23 -3 25 -50 25 -47
0 -50 -2 -50 -25z"/>
<path d="M9810 3265 c0 -16 6 -25 15 -25 12 0 15 -14 15 -70 0 -56 -3 -70 -15
-70 -9 0 -15 -9 -15 -25 0 -25 1 -25 90 -25 l90 0 0 40 c0 33 -3 40 -20 40
-11 0 -20 -7 -20 -15 0 -10 -10 -15 -30 -15 l-30 0 0 70 c0 56 3 70 15 70 9 0
15 9 15 25 0 24 -3 25 -55 25 -52 0 -55 -1 -55 -25z"/>
<path d="M10120 3265 c0 -14 5 -25 10 -25 6 0 10 -30 10 -70 0 -40 -4 -70 -10
-70 -5 0 -10 -11 -10 -25 0 -25 1 -25 90 -25 l90 0 0 35 c0 31 -3 35 -25 35
-14 0 -25 -4 -25 -10 0 -5 -11 -10 -25 -10 -20 0 -25 5 -25 25 0 22 4 25 35
25 28 0 35 4 35 20 0 16 -7 20 -35 20 -31 0 -35 3 -35 25 0 20 5 25 25 25 14
0 25 -4 25 -10 0 -5 9 -10 20 -10 16 0 20 7 20 35 l0 35 -85 0 c-84 0 -85 0
-85 -25z"/>
</g>
</svg>
