<svg xmlns="http://www.w3.org/2000/svg" viewBox="0 0 452 259.32"><defs><style>.cls-1{fill-rule:evenodd;}</style></defs><title>LOGO-SAYKA</title><g id="Capa_2" data-name="Capa 2"><g id="Capa_1-2" data-name="Capa 1"><path class="cls-1" d="M56.29,173.15c0-15.83-13-20.69-24.39-25l-.68-.26c-8.6-3.26-16-6.08-16-13.9,0-7.6,6.93-10.3,13.41-10.3s13.07,2.39,13.07,6.38v6.51H54.1V126.19c0-9.41-12.83-14.33-25.5-14.33-7.47,0-13.92,1.85-18.66,5.36-5.37,4-8.21,10-8.21,17.37,0,15.48,12.3,20.11,22.18,23.83l1.77.68c9.26,3.59,17.25,6.68,17.25,15,0,7.13-5.84,11.56-15.25,11.56-7.45,0-15.37-3-15.37-8.69v-6.84H0v9.38c0,5.66,3.15,10.41,9.1,13.74a39.25,39.25,0,0,0,18.58,4.39C41.92,197.62,56.29,190.05,56.29,173.15Z"/><path class="cls-1" d="M135,196.23H165v-10.7h-8.08L131,113.24H116.76l-25.9,72.29H82.77v10.7H112.7v-10.7h-8.39L110,169.18h27.56l5.72,16.35H135Zm-11.19-67.65c.2.8.45,1.69.77,2.61l9.49,27.06H113.52l9.62-27.08C123.42,130.25,123.65,129.38,123.84,128.58Z"/><path class="cls-1" d="M206.78,113.24h-29.7v10.59h8.08l22.42,37.36v24.34H197.34v10.7h33.72v-10.7H220.82V161.19l22.42-37.36h8.08V113.24H221.85v10.59h7.76L215.3,148.08c-.43.71-.8,1.42-1.09,2-.27-.59-.61-1.3-1-2l-14.31-24.25h7.87Z"/><path class="cls-1" d="M318.8,123.83h6.69L309,147.66H299.8V123.83h8.87V113.24H276.44v10.59h10.13v61.7H276.44v10.7h33.38v-10.7h-10V158.82h5.82c2.92,0,4.33.71,5.58,2.78l15.65,28.09c2.72,4.83,4.95,6.54,12,6.54h9v-10.7h-4.66c-2.61,0-3.92-.67-5-2.56l-14.6-25.41a15.08,15.08,0,0,0-4.25-5.32l20.38-28.41H348V113.24H318.8Z"/><path class="cls-1" d="M443.92,185.53,418,113.24H403.8l-25.9,72.29h-8.09v10.7h29.93v-10.7h-8.39l5.72-16.35h27.56l5.72,16.35h-8.28v10.7H452v-10.7Zm-33-56.95c.2.8.45,1.69.77,2.61l9.49,27.06H400.56l9.62-27.09C410.46,130.25,410.69,129.37,410.88,128.58Z"/><path class="cls-1" d="M33.43,254.15c0,1.74-3.5,2.33-5.09,2.33-4.54,0-7.84-3.52-7.84-8.36,0-4.6,3.22-7.93,7.66-7.93,2.07,0,5,.74,5,2.4v1.76h3v-2.69c0-3.5-6-4.29-8.12-4.29a10.62,10.62,0,0,0-10.86,10.86,10.79,10.79,0,0,0,11,11.09c3.21,0,8.3-1.15,8.3-4.25v-2.69h-3Z"/><polygon class="cls-1" points="56.57 256.27 49.31 256.27 49.31 249.61 56.74 249.61 56.74 246.92 49.31 246.92 49.31 240.43 56.06 240.43 56.06 242.87 58.91 242.87 58.91 237.74 43.47 237.74 43.47 240.28 46.08 240.28 46.08 256.39 43.47 256.39 43.47 258.97 59.41 258.97 59.41 253.75 56.57 253.75 56.57 256.27"/><path class="cls-1" d="M84.1,255.77l-3-5.16a2.65,2.65,0,0,0-.77-.91,5.8,5.8,0,0,0,4.23-5.95,5.46,5.46,0,0,0-3.74-5.56,11.89,11.89,0,0,0-3.91-.46H67.72v2.55h2.62v16.11H67.72V259h8.43v-2.58H73.57V250.5h2.36c1.25,0,1.58.25,2.09,1.09l3.24,5.74c.74,1.29,1.19,1.64,3,1.64H86.2v-2.58h-.76C84.68,256.39,84.38,256.25,84.1,255.77ZM73.57,240.43h3.34a7.1,7.1,0,0,1,2.54.37A3.09,3.09,0,0,1,81.33,244a3.48,3.48,0,0,1-3.67,3.83H73.57Z"/><path class="cls-1" d="M105.78,240.28h2.27l-4.64,13.65a11,11,0,0,0-.28,1.14,9.49,9.49,0,0,0-.28-1.15l-4.63-13.64h2.26v-2.55H92.74v2.55h2.09l6.59,18.6,0,.09h3.33l6.63-18.69h2.12v-2.55h-7.75Z"/><polygon class="cls-1" points="134.2 256.27 126.94 256.27 126.94 249.61 134.36 249.61 134.36 246.92 126.94 246.92 126.94 240.43 133.69 240.43 133.69 242.87 136.53 242.87 136.53 237.74 121.09 237.74 121.09 240.28 123.71 240.28 123.71 256.39 121.09 256.39 121.09 258.97 137.04 258.97 137.04 253.75 134.2 253.75 134.2 256.27"/><path class="cls-1" d="M159.6,256.27h-8.07a7.23,7.23,0,0,0-.9.06,8.24,8.24,0,0,0,.68-.83l10.82-15.63,0,0v-2.1H146.77v6h2.84v-3.27h7.63a7.37,7.37,0,0,0,.9-.06,9.57,9.57,0,0,0-.68.83l-10.82,15.61,0,0V259h15.83v-6.08H159.6Z"/><path class="cls-1" d="M181.7,237.73h-3.53l-6.69,18.66h-2.06V259H177v-2.58h-2.21l1.55-4.4h7.24l1.55,4.4h-2.18V259h7.54v-2.58h-2.06Zm-1.77,3.42a6.4,6.4,0,0,0,.29,1.09l2.49,7.11h-5.58l2.53-7.11A10.67,10.67,0,0,0,179.93,241.15Z"/><path class="cls-1" d="M221.79,237.73h-3.54l-6.69,18.66H209.5V259H217v-2.58h-2.2l1.54-4.4h7.25l1.54,4.4H223V259h7.54v-2.58h-2.06ZM220,241.15a9.06,9.06,0,0,0,.29,1.09l2.49,7.11h-5.58l2.53-7.11A8.55,8.55,0,0,0,220,241.15Z"/><path class="cls-1" d="M254.38,255.77l-3-5.16a2.64,2.64,0,0,0-.76-.91,5.81,5.81,0,0,0,4.23-5.95,5.47,5.47,0,0,0-3.75-5.56,11.86,11.86,0,0,0-3.9-.46H238v2.55h2.61v16.11H238V259h8.43v-2.58h-2.59V250.5h2.37c1.24,0,1.58.25,2.09,1.09l3.23,5.74c.74,1.29,1.2,1.64,3,1.64h1.91v-2.58h-.75C255,256.39,254.66,256.25,254.38,255.77Zm-10.53-15.34h3.35a7,7,0,0,1,2.53.37,3.09,3.09,0,0,1,1.88,3.18,3.48,3.48,0,0,1-3.67,3.83h-4.09Z"/><polygon class="cls-1" points="262.3 243.7 265.14 243.7 265.14 240.43 269.82 240.43 269.82 256.39 267.17 256.39 267.17 258.97 275.69 258.97 275.69 256.39 273.05 256.39 273.05 240.43 277.72 240.43 277.72 243.7 280.56 243.7 280.56 237.74 262.3 237.74 262.3 243.7"/><polygon class="cls-1" points="300.08 256.27 292.82 256.27 292.82 249.61 300.25 249.61 300.25 246.92 292.82 246.92 292.82 240.43 299.58 240.43 299.58 242.87 302.42 242.87 302.42 237.74 286.98 237.74 286.98 240.28 289.59 240.28 289.59 256.39 286.98 256.39 286.98 258.97 302.93 258.97 302.93 253.75 300.08 253.75 300.08 256.27"/><path class="cls-1" d="M323.12,246.74l-.17-.06c-2.26-.86-4.21-1.59-4.21-3.68s1.84-2.75,3.56-2.75,3.47.65,3.47,1.74v1.59h3V241c0-2.37-3.27-3.61-6.49-3.61s-6.84,1.52-6.84,5.78c0,3.94,3.14,5.12,5.66,6.06l.46.18c2.42.94,4.51,1.75,4.51,4,0,1.9-1.54,3.08-4,3.08-2,0-4.06-.8-4.06-2.33v-1.68h-3v2.33c0,3,3.55,4.58,7.05,4.58,5,0,7.29-3.12,7.29-6.22C329.35,249.08,326.18,247.89,323.12,246.74Z"/><path class="cls-1" d="M349.21,237.82l0-.09h-3.54L339,256.39H336.9V259h7.54v-2.58h-2.21l1.54-4.4H351l1.54,4.4h-2.17V259h7.54v-2.58h-2.06Zm-1.8,3.33a7.31,7.31,0,0,0,.28,1.09l2.5,7.11h-5.58l2.52-7.11A11,11,0,0,0,347.41,241.15Z"/><path class="cls-1" d="M377.92,240.28h2.67v12.44c0,.32,0,.74.07,1.08a8.14,8.14,0,0,0-.49-1l-10.31-15,0-.06h-5.75v2.55h2.62v16.11h-2.62V259h8.55v-2.58h-2.71V244a7.57,7.57,0,0,0,0-1.06,6.59,6.59,0,0,0,.49.95l10.31,15,0,.06h3.11V240.28h2.64v-2.55h-8.54Z"/><path class="cls-1" d="M403.46,237.82l0-.09h-3.54l-6.68,18.66h-2.06V259h7.54v-2.58h-2.21L398,252h7.25l1.54,4.4h-2.17V259h7.54v-2.58h-2.06Zm-1.8,3.33a7.31,7.31,0,0,0,.28,1.09l2.5,7.11h-5.58l2.53-7.11C401.51,241.83,401.6,241.44,401.66,241.15Z"/><polygon class="cls-1" points="431.94 256.27 424.89 256.27 424.89 240.43 427.53 240.43 427.53 237.74 419.05 237.74 419.05 240.43 421.66 240.43 421.66 256.39 419.05 256.39 419.05 258.97 434.82 258.97 434.82 252.89 431.94 252.89 431.94 256.27"/><rect x="18.2" y="211.4" width="415.61" height="4.44"/><rect x="18.2" y="82.11" width="132.88" height="4.44"/><rect x="300.92" y="82.11" width="132.88" height="4.44"/><path class="cls-1" d="M143.35,38.17,136.24,34l-1.35,2.32,41.48,24.25,17.06-4.17,6.69,3.88,0,0L225.42,75,193,94l1.35,2.31,33.77-19.72,33.76,19.72L263.2,94,230.74,75,256,60.25l0,0,6.7-3.88,17,4.17,41.48-24.25L319.91,34l-7.11,4.15-13.34-3.3,25.31-14.78-1.35-2.32L297.48,32.92l3.81-13.52L308,15.5l-1.36-2.32-41.27,24.1v0h0L260.5,54.52,228.08,73.46,195.65,54.52,190.8,37.3h0v0l-41.27-24.1-1.35,2.32,6.68,3.9,3.81,13.52L132.73,17.77l-1.35,2.32,25.31,14.78Zm136,19.55v0l-13.27-3.28L273.85,50,287,53.23Zm11-6.43L277.2,48l7.59-4.4,13.11,3.24Zm19.13-11.18-8.26,4.82L288.14,41.7l8.3-4.81ZM298,21.35l-3.81,13.52-7.77,4.54,3.81-13.53Zm-11.11,6.48L283,41.35l-7.58,4.43,3.81-13.52Zm-19.2,11.22,8.29-4.84-3.81,13.52-8.29,4.84Zm-109.4,7.83,13.11-3.24L179,48l-13.15,3.25Zm18.56,10.88v0l-7.69-4.49L182.3,50l7.78,4.51ZM188.5,39.05l3.81,13.52L184,47.73l-3.81-13.52Zm-11.62-6.79,3.81,13.52-7.58-4.43L169.3,27.83ZM158.2,21.35,166,25.88l3.81,13.53L162,34.87Zm1.51,15.54L168,41.7l-13.09,3.23-8.26-4.82Z"/><path class="cls-1" d="M205.53,34.2l3,3.89.25.37a2.31,2.31,0,0,0,.17,4.62h38.15a2.32,2.32,0,0,0,2.32-2.31c0-1.28-.66-2.29-1.94-2.29.21-.25,1.16-1.2,1.38-1.44a33.09,33.09,0,0,0,6.27-10.46,5.74,5.74,0,0,0-2.34-7.22A26.27,26.27,0,0,0,248.07,17c-1.46-.59-3-.86-4.52-1.43a24.41,24.41,0,0,0-7-2.07,2.19,2.19,0,0,1-1.43-.57,11,11,0,0,0-3.75-2.52,1.47,1.47,0,0,1-.83-1.65h0V7.63h2.16a1.75,1.75,0,0,0,0-3.5h-2.16V2a1.95,1.95,0,1,0-3.9,0V4.13h-2a1.75,1.75,0,0,0,0,3.5h2v.9a2.42,2.42,0,0,1-.7,1.76,29.31,29.31,0,0,0-4.38,3,1.33,1.33,0,0,1-.55.22c-1.79.44-3.6.81-5.37,1.33-3.41,1-6.9,1.74-10.11,3.4-3.6,1.87-5.22,5.18-3.91,8.65A27.67,27.67,0,0,0,205.53,34.2ZM246,22c.22-1.66,1-2,2.41-1.16.78.49,1.5,1.07,2.24,1.61a2.5,2.5,0,0,1,.76,3.21,28,28,0,0,1-8.85,12.2c-1.26,1-1.78,1-3.68.36A18.34,18.34,0,0,1,240,36.37,29.84,29.84,0,0,0,246,22ZM230.55,35.85c0-5.68,0-11.37,0-17.06,0-.2,0-.4,0-.59.11-1.63.6-2.05,2.31-2.2,2.48.64,5,1.17,7.43,2,2,.65,2.44,1.44,2,3.45-1.21,6.14-3.65,11.68-8.37,16-.7.64-1.43,1.59-2.56,1.08S230.56,36.79,230.55,35.85ZM216.83,18.12a25.83,25.83,0,0,1,8.07-1.9c1.28-.15,1.83.47,1.87,2,.06,1.72,0,3.45,0,5.17v4.18h0c0,2.78,0,5.57,0,8.35a8.08,8.08,0,0,1-.12,1.78,1.07,1.07,0,0,1-1.68.76,7.27,7.27,0,0,1-1.57-1.2A26.13,26.13,0,0,1,215.9,24c-.18-.84-.45-1.66-.65-2.5C214.83,19.76,215.23,18.88,216.83,18.12Zm-11.49,5.17a8.28,8.28,0,0,1,4.1-3c1.2-.48,1.92,0,2,1.33a28.19,28.19,0,0,0,2.63,9.1,38.8,38.8,0,0,0,2.85,4.73c.54.87,1.13,1.71,1.8,2.71a4.22,4.22,0,0,1-4.36-.19,22.27,22.27,0,0,1-5.28-5.33,30.13,30.13,0,0,1-4-7.5A1.84,1.84,0,0,1,205.34,23.29Z"/><path class="cls-1" d="M247.12,46.62H209a2.31,2.31,0,0,0-1.84.93v0a1.93,1.93,0,0,0-.22.36.43.43,0,0,1,0,.07,2.26,2.26,0,0,0-.2.94h0a2.3,2.3,0,0,0,0,.26c0,.07,0,.14,0,.21a2.51,2.51,0,0,0,.18.59,1.89,1.89,0,0,0,1.57,1.18,2.22,2.22,0,0,0,.51.06h38.15a2.28,2.28,0,0,0,1.78-.85l0,0,.14-.19a2.18,2.18,0,0,0,.37-1.19v-.05A2.32,2.32,0,0,0,247.12,46.62Z"/></g></g></svg>